HIERARCHY
ROOT Hips
{
	OFFSET 0.000000 0.000000 0.000000 
	CHANNELS 6 Xposition Yposition Zposition Zrotation Yrotation Xrotation
	JOINT LeftUpLeg
	{
		OFFSET 1.363060 -1.794630 0.839290 
		CHANNELS 3 Zrotation Yrotation Xrotation
		JOINT LeftLeg
		{
			OFFSET 2.448110 -6.726130 0.000000 
			CHANNELS 3 Zrotation Yrotation Xrotation
			JOINT LeftFoot
			{
				OFFSET 2.562200 -7.039590 0.000000 
				CHANNELS 3 Zrotation Yrotation Xrotation
				JOINT LeftToeBase
				{
					OFFSET 0.157640 -0.433110 2.322550 
					CHANNELS 3 Zrotation Yrotation Xrotation
					End Site
					{
						OFFSET 0.000000 0.000000 0.000000 
					}
				}
			}
		}
	}
	JOINT RightUpLeg
	{
		OFFSET -1.305520 -1.794630 0.839290 
		CHANNELS 3 Zrotation Yrotation Xrotation
		JOINT RightLeg
		{
			OFFSET -2.542530 -6.985550 0.000000 
			CHANNELS 3 Zrotation Yrotation Xrotation
			JOINT RightFoot
			{
				OFFSET -2.568260 -7.056230 0.000000 
				CHANNELS 3 Zrotation Yrotation Xrotation
				JOINT RightToeBase
				{
					OFFSET -0.164730 -0.452590 2.363150 
					CHANNELS 3 Zrotation Yrotation Xrotation
					End Site
					{
						OFFSET 0.000000 0.000000 0.000000 
					}
				}
			}
		}
	}
	JOINT Spine
	{
		OFFSET 0.028270 2.035590 -0.193380 
		CHANNELS 3 Zrotation Yrotation Xrotation
		JOINT Spine1
		{
			OFFSET 0.056720 2.048850 -0.042750 
			CHANNELS 3 Zrotation Yrotation Xrotation
			JOINT Neck1
			{
				OFFSET -0.054170 1.746240 0.172020 
				CHANNELS 3 Zrotation Yrotation Xrotation
				JOINT Head
				{
					OFFSET 0.104070 1.761360 -0.123970 
					CHANNELS 3 Zrotation Yrotation Xrotation
					End Site
					{
						OFFSET 0.000000 0.000000 0.000000 
					}
				}
			}
			JOINT LeftArm
			{
				OFFSET 3.362410 1.200890 -0.311210 
				CHANNELS 3 Zrotation Yrotation Xrotation
				JOINT LeftForeArm
				{
					OFFSET 4.983000 -0.000000 -0.000000 
					CHANNELS 3 Zrotation Yrotation Xrotation
					JOINT LeftHand
					{
						OFFSET 3.483560 -0.000000 -0.000000 
						CHANNELS 3 Zrotation Yrotation Xrotation
						JOINT LeftHandIndex1
						{
							OFFSET 0.715260 -0.000000 -0.000000 
							CHANNELS 3 Zrotation Yrotation Xrotation
							End Site
							{
								OFFSET 0.000000 0.000000 0.000000 
							}
						}
					}
				}
			}
			JOINT RightArm
			{
				OFFSET -3.136600 1.374050 -0.404650 
				CHANNELS 3 Zrotation Yrotation Xrotation
				JOINT RightForeArm
				{
					OFFSET -5.241900 -0.000000 -0.000000 
					CHANNELS 3 Zrotation Yrotation Xrotation
					JOINT RightHand
					{
						OFFSET -3.444170 -0.000000 -0.000000 
						CHANNELS 3 Zrotation Yrotation Xrotation
						JOINT RightHandIndex1
						{
							OFFSET -0.622530 -0.000000 -0.000000 
							CHANNELS 3 Zrotation Yrotation Xrotation
							End Site
							{
								OFFSET 0.000000 0.000000 0.000000 
							}
						}
					}
				}
			}
		}
	}
}
MOTION
Frames: 7
Frame Time: 0.041667
4.531654 17.796923 36.477887 -178.764378 -17.524180 -168.155258 -15.451519 -8.048794 2.414154 -1.266083 0.203046 1.744687 0.513124 -4.560278 4.911493 1.404400 7.496100 21.193700 9.885304 2.458925 -29.650198 1.315402 -7.584187 18.483728 -1.284001 0.051484 8.874279 -0.010900 -0.674300 1.853100 1.404779 -1.587140 -3.795333 -2.055589 -0.644856 8.519100 10.562621 -5.184070 6.750208 4.289600 -2.390600 -1.249600 -97.215063 -6.102622 23.480476 8.990031 -15.520437 -1.287558 -0.031185 -0.374673 28.480066 -7.125000 0.000000 0.000000 97.477443 -2.339003 -12.056523 -10.649180 21.777087 -2.380095 0.687983 -1.638601 37.893324 7.125000 0.000000 0.000000 
4.526684 17.794935 36.476120 -178.603101 -17.672237 -168.227692 -15.181669 -8.341361 1.897004 -1.248147 0.635492 2.897138 0.559075 -5.013124 4.559291 1.565500 7.895400 22.396900 10.091061 2.224112 -29.646669 1.343309 -7.505737 18.299555 -1.288167 0.052157 8.985081 -0.003900 -0.404900 1.112500 1.434375 -1.725288 -3.817212 -2.091362 -0.701690 8.424105 10.591129 -5.255595 6.661978 4.328700 -2.429700 -1.302500 -97.251867 -6.046012 22.676587 8.810275 -15.215319 -1.234436 -0.035313 -0.370704 29.334081 -7.125000 0.000000 0.000000 97.480242 -2.408812 -12.277833 -10.559182 21.654511 -2.361328 0.679079 -1.642723 37.869908 7.125000 0.000000 0.000000 
4.520830 17.795376 36.473359 -178.517153 -17.833525 -168.257404 -15.168167 -8.290400 2.507348 -1.269511 0.200517 1.744682 0.513377 -4.528864 4.915050 1.742600 8.308000 23.653600 10.195119 2.108401 -29.689236 1.336685 -7.534194 18.368222 -1.298848 0.107199 8.878294 -0.004000 -0.407300 1.119100 1.451484 -1.840925 -3.823706 -2.163449 -0.755756 8.415727 10.597354 -5.315915 6.597265 4.333500 -2.461600 -1.311800 -97.243947 -6.063419 21.778355 8.591132 -14.847610 -1.171145 -0.041739 -0.363654 30.145769 -7.125000 0.000000 0.000000 97.501013 -2.421152 -12.417825 -10.522975 21.608060 -2.358326 0.680578 -1.650551 37.989717 7.125000 0.000000 0.000000 
4.515749 17.798248 36.466953 -178.525859 -17.937513 -168.448032 -15.211012 -8.335048 2.779002 -1.266327 0.203274 1.747435 0.514676 -4.566710 4.881073 1.876400 8.603700 24.563200 10.184735 1.987728 -29.510921 1.327609 -7.541625 18.421555 -1.306405 0.087567 9.228601 -0.000000 -0.039000 0.107200 1.451565 -1.925972 -3.806639 -2.273413 -0.793393 8.394939 10.521453 -5.401962 6.431540 4.253600 -2.514500 -1.413400 -97.192583 -6.107820 20.771785 8.356890 -14.461921 -1.107656 -0.046953 -0.352164 31.030560 -7.125000 0.000000 0.000000 97.547804 -2.449461 -12.431013 -10.490622 21.582409 -2.353813 0.682013 -1.656559 38.038405 7.125000 0.000000 0.000000 
4.516081 17.798138 36.460326 -178.536754 -17.868236 -168.788123 -15.274327 -8.167747 3.178409 -1.256902 0.208687 1.759388 0.519609 -4.672076 4.803697 1.959300 8.780800 25.112000 10.166317 2.026490 -29.178108 1.321618 -7.546312 18.477035 -1.272208 -0.184432 10.315245 -0.072000 1.731600 -4.764600 1.450453 -1.967138 -3.779359 -2.327459 -0.812542 8.301328 10.417694 -5.482982 6.238824 4.161800 -2.566400 -1.554700 -97.138540 -6.091534 19.836004 8.204894 -14.215454 -1.069263 -0.048629 -0.343053 31.792654 -7.125000 0.000000 0.000000 97.573768 -2.491704 -12.397589 -10.436306 21.524520 -2.338792 0.678725 -1.655129 38.120092 7.125000 0.000000 0.000000 
4.514976 17.790406 36.453368 -178.534459 -17.945318 -169.200014 -15.327204 -8.130772 3.668182 -1.248962 0.214482 1.768402 0.522444 -4.750071 4.721818 2.177700 9.226800 26.507200 10.191631 2.009846 -28.808405 1.300385 -7.574220 18.593521 -1.242781 -0.249164 10.163158 -0.092100 1.957700 -5.388900 1.468796 -2.102194 -3.749019 -2.306925 -0.879321 8.240002 10.384953 -5.475728 6.171257 4.149800 -2.564600 -1.597500 -97.128293 -6.023422 19.094959 8.118114 -14.075301 -1.047385 -0.050452 -0.337113 32.297134 -7.125000 0.000000 0.000000 97.525772 -2.509784 -12.343980 -10.416717 21.495933 -2.335194 0.683859 -1.655316 38.217296 7.125000 0.000000 0.000000 
4.513098 17.783227 36.450385 -178.480633 -17.856018 -169.253058 -15.308943 -8.017912 3.686745 -1.246663 0.214519 1.773732 0.523358 -4.768604 4.681448 2.146200 9.164200 26.310300 10.313151 1.935026 -28.866960 1.289287 -7.606287 18.685728 -1.331990 0.235834 9.096381 -0.000200 0.098600 -0.271000 1.477965 -2.129450 -3.754953 -2.296770 -0.892478 8.191977 10.364807 -5.436467 6.163031 4.131400 -2.546200 -1.607400 -97.073246 -5.876429 18.636654 8.043118 -13.952633 -1.027498 -0.052962 -0.336039 32.549119 -7.125000 0.000000 0.000000 97.549751 -2.581358 -12.390877 -10.469788 21.549071 -2.354817 0.698874 -1.667018 38.190137 7.125000 0.000000 0.000000 
